<mxfile host="Electron" agent="Mozilla/5.0 (Windows NT 10.0; Win64; x64) AppleWebKit/537.36 (KHTML, like Gecko) draw.io/24.7.8 Chrome/128.0.6613.36 Electron/32.0.1 Safari/537.36" version="24.7.8">
  <diagram name="Strona-1" id="Vsye2IRKR0h4ENDPiO4c">
    <mxGraphModel dx="973" dy="2644" grid="1" gridSize="10" guides="1" tooltips="1" connect="1" arrows="1" fold="1" page="1" pageScale="1" pageWidth="827" pageHeight="1169" math="0" shadow="0">
      <root>
        <mxCell id="0" />
        <mxCell id="1" parent="0" />
        <mxCell id="PkoLkN0xTN7A1ivg48Ps-18" value="&lt;font style=&quot;font-size: 20px;&quot;&gt;Projektanci:&lt;/font&gt;&lt;div style=&quot;font-size: 20px;&quot;&gt;&lt;font style=&quot;font-size: 20px;&quot;&gt;• Tomasz Genderka&lt;br&gt;•&amp;nbsp;&lt;/font&gt;&lt;span style=&quot;background-color: initial;&quot;&gt;Katarzyna Dolewska&lt;/span&gt;&lt;/div&gt;" style="shape=note;whiteSpace=wrap;html=1;backgroundOutline=1;darkOpacity=0.05;fillColor=#fff2cc;strokeColor=#d6b656;align=left;spacingLeft=15;spacingBottom=0;" vertex="1" parent="1">
          <mxGeometry x="827" y="-1169" width="240" height="180" as="geometry" />
        </mxCell>
        <mxCell id="PkoLkN0xTN7A1ivg48Ps-19" value="Założenia:&lt;br&gt;&lt;div&gt;• moduł ma umożliwiać generowanie:&lt;br&gt;&amp;nbsp; &amp;nbsp;- raportów&amp;nbsp;o stanie działań pomocowych, dostępności zasobów, liczbie&lt;br&gt;&amp;nbsp; &amp;nbsp; &amp;nbsp;poszkodowanych i udzielonej pomocy, w tym raportów dotyczących darowizn&lt;br&gt;&amp;nbsp; &amp;nbsp;- potwierdzeń&amp;nbsp;&lt;span style=&quot;background-color: initial;&quot;&gt;darowizn&lt;/span&gt;&lt;span style=&quot;background-color: initial;&quot;&gt;&amp;nbsp;przekazanych przez darczyńców dla celów podatkowych&lt;/span&gt;&lt;/div&gt;&lt;div&gt;• m&lt;span style=&quot;background-color: initial;&quot;&gt;oduł obejmuje implementację części interfejsu graficznego dopowiedzialnej za&amp;nbsp;&lt;/span&gt;&lt;span style=&quot;background-color: initial;&quot;&gt;wyświetlanie danych poszkodowanych, wolontariuszy, darczyńców, organizacji, zgłoszeń, zadań i zasobów&amp;nbsp;z możliwością filtrowania i sortowania wyników&lt;/span&gt;&lt;/div&gt;&lt;div&gt;&lt;br&gt;&lt;/div&gt;Ponad to moduł ma zapewnić definicję odpowiednich punktów końcowych i wywołań w kontrolerze (Web Controller), raporty mają być udostępnione do pobrania w formacie pdf." style="shape=note;size=20;whiteSpace=wrap;html=1;fillColor=#fff2cc;strokeColor=#d6b656;align=left;spacingLeft=5;" vertex="1" parent="1">
          <mxGeometry x="1170" y="-1169" width="484" height="209" as="geometry" />
        </mxCell>
        <mxCell id="PkoLkN0xTN7A1ivg48Ps-49" value="Web Controller" style="html=1;dropTarget=0;whiteSpace=wrap;" vertex="1" parent="1">
          <mxGeometry x="960" y="-879" width="180" height="90" as="geometry" />
        </mxCell>
        <mxCell id="PkoLkN0xTN7A1ivg48Ps-50" value="" style="shape=module;jettyWidth=8;jettyHeight=4;" vertex="1" parent="PkoLkN0xTN7A1ivg48Ps-49">
          <mxGeometry x="1" width="20" height="20" relative="1" as="geometry">
            <mxPoint x="-27" y="7" as="offset" />
          </mxGeometry>
        </mxCell>
        <mxCell id="PkoLkN0xTN7A1ivg48Ps-51" value="Raportowanie i monitorowanie" style="html=1;dropTarget=0;whiteSpace=wrap;" vertex="1" parent="1">
          <mxGeometry x="1290" y="-879" width="180" height="90" as="geometry" />
        </mxCell>
        <mxCell id="PkoLkN0xTN7A1ivg48Ps-52" value="" style="shape=module;jettyWidth=8;jettyHeight=4;" vertex="1" parent="PkoLkN0xTN7A1ivg48Ps-51">
          <mxGeometry x="1" width="20" height="20" relative="1" as="geometry">
            <mxPoint x="-27" y="7" as="offset" />
          </mxGeometry>
        </mxCell>
        <mxCell id="PkoLkN0xTN7A1ivg48Ps-53" value="" style="rounded=0;orthogonalLoop=1;jettySize=auto;html=1;endArrow=halfCircle;endFill=0;endSize=6;strokeWidth=1;sketch=0;exitX=1;exitY=0.5;exitDx=0;exitDy=0;" edge="1" parent="1" source="PkoLkN0xTN7A1ivg48Ps-49" target="PkoLkN0xTN7A1ivg48Ps-55">
          <mxGeometry relative="1" as="geometry">
            <mxPoint x="1130" y="-959" as="sourcePoint" />
          </mxGeometry>
        </mxCell>
        <mxCell id="PkoLkN0xTN7A1ivg48Ps-54" value="" style="rounded=0;orthogonalLoop=1;jettySize=auto;html=1;endArrow=oval;endFill=0;sketch=0;sourcePerimeterSpacing=0;targetPerimeterSpacing=0;endSize=10;exitX=0;exitY=0.5;exitDx=0;exitDy=0;" edge="1" parent="1" source="PkoLkN0xTN7A1ivg48Ps-51" target="PkoLkN0xTN7A1ivg48Ps-55">
          <mxGeometry relative="1" as="geometry">
            <mxPoint x="1400" y="-1054" as="sourcePoint" />
          </mxGeometry>
        </mxCell>
        <mxCell id="PkoLkN0xTN7A1ivg48Ps-55" value="" style="ellipse;whiteSpace=wrap;html=1;align=center;aspect=fixed;fillColor=none;strokeColor=none;resizable=0;perimeter=centerPerimeter;rotatable=0;allowArrows=0;points=[];outlineConnect=1;" vertex="1" parent="1">
          <mxGeometry x="1210" y="-839" width="10" height="10" as="geometry" />
        </mxCell>
        <mxCell id="PkoLkN0xTN7A1ivg48Ps-57" value="tworzenie raportów" style="text;html=1;align=center;verticalAlign=middle;whiteSpace=wrap;rounded=0;" vertex="1" parent="1">
          <mxGeometry x="1185" y="-879" width="60" height="30" as="geometry" />
        </mxCell>
      </root>
    </mxGraphModel>
  </diagram>
</mxfile>
